<mxfile host="65bd71144e">
    <diagram id="F_ZHsp4GnJRXn4jdJGyZ" name="Package diagram">
        <mxGraphModel dx="714" dy="430" grid="1" gridSize="10" guides="1" tooltips="1" connect="1" arrows="1" fold="1" page="1" pageScale="1" pageWidth="850" pageHeight="1100" math="0" shadow="0">
            <root>
                <mxCell id="0"/>
                <mxCell id="1" parent="0"/>
                <mxCell id="2" value="libsmp2" style="shape=folder;fontStyle=1;spacingTop=10;tabWidth=40;tabHeight=14;tabPosition=left;html=1;" vertex="1" parent="1">
                    <mxGeometry x="330" y="200" width="70" height="50" as="geometry"/>
                </mxCell>
                <mxCell id="3" value="simulator" style="shape=folder;fontStyle=1;spacingTop=10;tabWidth=40;tabHeight=14;tabPosition=left;html=1;" vertex="1" parent="1">
                    <mxGeometry x="420" y="200" width="70" height="50" as="geometry"/>
                </mxCell>
                <mxCell id="4" value="examples" style="shape=folder;fontStyle=1;spacingTop=10;tabWidth=40;tabHeight=14;tabPosition=left;html=1;" vertex="1" parent="1">
                    <mxGeometry x="330" y="260" width="70" height="50" as="geometry"/>
                </mxCell>
                <mxCell id="5" value="models" style="shape=folder;fontStyle=1;spacingTop=10;tabWidth=40;tabHeight=14;tabPosition=left;html=1;" vertex="1" parent="1">
                    <mxGeometry x="420" y="260" width="70" height="50" as="geometry"/>
                </mxCell>
            </root>
        </mxGraphModel>
    </diagram>
    <diagram id="fDqeLfiAnf6OJ_jjVwNV" name="Deployment">
        <mxGraphModel dx="714" dy="430" grid="1" gridSize="10" guides="1" tooltips="1" connect="1" arrows="1" fold="1" page="1" pageScale="1" pageWidth="850" pageHeight="1100" math="0" shadow="0">
            <root>
                <mxCell id="Y4yHJV8uxlIWPnH-TooT-0"/>
                <mxCell id="Y4yHJV8uxlIWPnH-TooT-1" parent="Y4yHJV8uxlIWPnH-TooT-0"/>
                <mxCell id="Y4yHJV8uxlIWPnH-TooT-2" value="Server" style="verticalAlign=top;align=left;spacingTop=8;spacingLeft=2;spacingRight=12;shape=cube;size=10;direction=south;fontStyle=4;html=1;" vertex="1" parent="Y4yHJV8uxlIWPnH-TooT-1">
                    <mxGeometry x="280" y="160" width="140" height="130" as="geometry"/>
                </mxCell>
                <mxCell id="Y4yHJV8uxlIWPnH-TooT-5" value="simulator" style="shape=module;align=left;spacingLeft=20;align=center;verticalAlign=top;" vertex="1" parent="Y4yHJV8uxlIWPnH-TooT-1">
                    <mxGeometry x="290" y="210" width="100" height="50" as="geometry"/>
                </mxCell>
                <mxCell id="Y4yHJV8uxlIWPnH-TooT-6" value="Client" style="verticalAlign=top;align=left;spacingTop=8;spacingLeft=2;spacingRight=12;shape=cube;size=10;direction=south;fontStyle=4;html=1;" vertex="1" parent="Y4yHJV8uxlIWPnH-TooT-1">
                    <mxGeometry x="480" y="160" width="140" height="130" as="geometry"/>
                </mxCell>
            </root>
        </mxGraphModel>
    </diagram>
</mxfile>